<?xml version="1.0" encoding="UTF-8"?><svg id="object" xmlns="http://www.w3.org/2000/svg" viewBox="0 0 956.79 641.54"><defs><style>.cls-1{fill:#c1272d;}</style></defs><g><path class="cls-1" d="M671.95,291.29c-35.17,67.74-106,114.11-187.46,114.11s-152.29-46.38-187.46-114.11h-40.04c12.24,28.7,30,55.08,52.73,77.8,46.68,46.68,108.75,72.39,174.77,72.39s128.09-25.71,174.77-72.39c22.72-22.72,40.48-49.1,52.73-77.8h-40.04Z"/><path class="cls-1" d="M464.19,116.39v251.27c-8.68-1.06-17.1-2.88-25.26-5.31-3.66-1.08-7.28-2.29-10.82-3.62V173.93l-86.98,42.08v82.72c-16.29-16.82-28.56-33.03-36.08-43.84v-61.5l123.06-59.54,36.08-17.45Z"/><path class="cls-1" d="M578.76,214.62v121.85c-12.28,8.29-24.32,14.78-36.08,19.69v-105.46h-67.65v117.89c-3.65-.17-7.26-.49-10.82-.93-8.68-1.06-17.1-2.88-25.26-5.31V214.62h139.82Z"/><path class="cls-1" d="M658.14,95.21v164.38c-12.19,15.49-24.22,29.04-36.08,40.82V119.33L464.19,53.98v123.95h-36.08V0l230.03,95.21Z"/><circle class="cls-1" cx="364.52" cy="92.39" r="28.41" transform="translate(41.44 284.81) rotate(-45)"/></g><g><path d="M61.23,623.34H25.09l-5.98,17.29H0l32.63-90.87h21.19l32.63,90.87h-19.24l-5.98-17.29Zm-4.81-14.17l-13.26-38.35-13.26,38.35h26.52Z"/><path d="M145.47,640.63l-20.02-35.36h-8.58v35.36h-18.2v-90.74h34.06c7.02,0,13,1.24,17.94,3.71,4.94,2.47,8.65,5.81,11.11,10.01,2.47,4.21,3.71,8.91,3.71,14.11,0,5.98-1.73,11.38-5.2,16.18-3.47,4.81-8.62,8.12-15.47,9.95l21.71,36.79h-21.06Zm-28.6-48.88h15.21c4.94,0,8.62-1.21,11.05-3.64,2.43-2.43,3.64-5.76,3.64-10.01s-1.21-7.56-3.64-9.94c-2.43-2.38-6.11-3.58-11.05-3.58h-15.21v27.17Z"/><path d="M183.62,571.14c4.03-7.06,9.53-12.57,16.51-16.51,6.98-3.94,14.8-5.92,23.46-5.92,10.14,0,19.02,2.6,26.65,7.8,7.62,5.2,12.96,12.4,15.99,21.58h-20.93c-2.17-4.16-5.11-7.3-8.84-9.42-3.73-2.12-8.06-3.18-13-3.18-5.29,0-9.99,1.21-14.1,3.64-4.12,2.43-7.32,5.89-9.62,10.4-2.3,4.51-3.44,9.71-3.44,15.6s1.15,11.07,3.44,15.54c2.3,4.46,5.5,7.93,9.62,10.4,4.12,2.47,8.82,3.71,14.1,3.71,4.94,0,9.29-1.08,13.06-3.25,3.77-2.17,6.7-5.33,8.77-9.49h20.93c-3.03,9.27-8.34,16.49-15.92,21.64-7.58,5.16-16.49,7.74-26.72,7.74-8.67,0-16.49-1.97-23.46-5.91-6.98-3.94-12.48-9.42-16.51-16.45-4.03-7.02-6.05-14.99-6.05-23.92s2.02-16.92,6.05-23.99Z"/><path d="M357.11,549.89v90.74h-18.2v-38.87h-38.87v38.87h-18.2v-90.74h18.2v37.57h38.87v-37.57h18.2Z"/><path d="M393.25,549.89v90.74h-18.2v-90.74h18.2Z"/><path d="M472.94,549.89v14.3h-24.18v76.44h-18.2v-76.44h-24.18v-14.3h66.56Z"/><path d="M504.4,564.06v23.53h30.55v14.04h-30.55v24.57h34.45v14.43h-52.65v-90.87h52.65v14.3h-34.45Z"/><path d="M556.98,571.14c4.03-7.06,9.53-12.57,16.51-16.51,6.98-3.94,14.8-5.92,23.46-5.92,10.14,0,19.02,2.6,26.65,7.8,7.62,5.2,12.95,12.4,15.99,21.58h-20.93c-2.17-4.16-5.11-7.3-8.84-9.42-3.73-2.12-8.06-3.18-13-3.18-5.29,0-9.99,1.21-14.1,3.64-4.12,2.43-7.32,5.89-9.62,10.4-2.3,4.51-3.44,9.71-3.44,15.6s1.15,11.07,3.44,15.54c2.3,4.46,5.5,7.93,9.62,10.4,4.12,2.47,8.82,3.71,14.1,3.71,4.94,0,9.29-1.08,13.06-3.25,3.77-2.17,6.7-5.33,8.77-9.49h20.93c-3.03,9.27-8.34,16.49-15.92,21.64-7.58,5.16-16.49,7.74-26.72,7.74-8.67,0-16.49-1.97-23.46-5.91-6.98-3.94-12.48-9.42-16.51-16.45-4.03-7.02-6.05-14.99-6.05-23.92s2.02-16.92,6.05-23.99Z"/><path d="M716.94,549.89v14.3h-24.18v76.44h-18.2v-76.44h-24.18v-14.3h66.56Z"/><path d="M748.14,549.89v56.03c0,6.15,1.6,10.85,4.81,14.1,3.21,3.25,7.71,4.88,13.52,4.88s10.44-1.62,13.65-4.88c3.21-3.25,4.81-7.95,4.81-14.1v-56.03h18.33v56.03c0,7.71-1.67,14.24-5,19.57-3.34,5.33-7.8,9.34-13.39,12.02-5.59,2.69-11.81,4.03-18.65,4.03s-12.89-1.34-18.4-4.03c-5.5-2.69-9.86-6.7-13.06-12.02-3.21-5.33-4.81-11.85-4.81-19.57v-56.03h18.2Z"/><path d="M867.61,640.63l-20.02-35.36h-8.58v35.36h-18.2v-90.74h34.06c7.02,0,13,1.24,17.94,3.71,4.94,2.47,8.65,5.81,11.12,10.01,2.47,4.21,3.71,8.91,3.71,14.11,0,5.98-1.73,11.38-5.2,16.18-3.47,4.81-8.62,8.12-15.47,9.95l21.71,36.79h-21.06Zm-28.6-48.88h15.21c4.94,0,8.62-1.21,11.05-3.64s3.64-5.76,3.64-10.01-1.21-7.56-3.64-9.94c-2.43-2.38-6.11-3.58-11.05-3.58h-15.21v27.17Z"/><path d="M922.34,564.06v23.53h30.55v14.04h-30.55v24.57h34.45v14.43h-52.65v-90.87h52.65v14.3h-34.45Z"/></g></svg>