<?xml version="1.0" encoding="UTF-8"?><svg id="Layer_1" xmlns="http://www.w3.org/2000/svg" viewBox="0 0 20.63 34"><defs><style>.cls-1{fill:#221f1f;}.cls-2{fill:#e4e84c;}</style></defs><path class="cls-2" d="M17.89,16.47h-.15c-.88,0-1.37,.7-1.37,1.59v2.09h0v-3.34c0-.88-.71-1.6-1.59-1.6-.88,0-1.7,.71-1.7,1.59v2.82h-.01v-4.16c0-.88-.71-1.6-1.59-1.6h0c-.88,0-1.7,.74-1.7,1.62v3.62h0l.02-11c0-.88-.72-1.6-1.6-1.6h0c-.88,0-1.6,.72-1.6,1.6l-.02,11.63v3.75l-.94-2.67-.17-.49c-.3-.85-1.24-1.3-2.09-1h0c-.85,.3-1.3,1.24-1,2.09l2.08,5.91c.1,.39,.24,.77,.4,1.13,.93,2.1,2.76,3.71,5,4.33,.66,.18,1.36,.28,2.08,.29,.46,0,.9-.04,1.34-.11,1.14-.2,2.19-.64,3.11-1.28,.03-.02,.07-.05,.1-.07,1.94-1.41,3.21-3.69,3.21-6.27v-5.16c.01-2.83-.89-3.62-1.77-3.7Z"/><g><path class="cls-1" d="M8.23,3.57c.39,0,.71-.32,.71-.71V.71c0-.39-.32-.71-.71-.71s-.71,.32-.71,.71V2.86c0,.39,.32,.71,.71,.71Z"/><path class="cls-1" d="M3.93,4.93c.14,.14,.32,.21,.5,.21s.36-.07,.5-.21c.28-.28,.28-.73,0-1l-1.52-1.52c-.28-.28-.73-.28-1,0-.28,.28-.28,.73,0,1l1.52,1.52Z"/><path class="cls-1" d="M3.57,8.23c0-.39-.32-.71-.71-.71H.71c-.39,0-.71,.32-.71,.71s.32,.71,.71,.71H2.86c.39,0,.71-.32,.71-.71Z"/><path class="cls-1" d="M12.89,8.23c0,.39,.32,.71,.71,.71h2.15c.39,0,.71-.32,.71-.71s-.32-.71-.71-.71h-2.15c-.39,0-.71,.32-.71,.71Z"/><path class="cls-1" d="M12.03,5.14c.18,0,.36-.07,.5-.21l1.52-1.52c.28-.28,.28-.73,0-1-.28-.28-.73-.28-1,0l-1.52,1.52c-.28,.28-.28,.73,0,1,.14,.14,.32,.21,.5,.21Z"/><path class="cls-1" d="M19.94,16.79c-.57-.96-1.38-1.22-1.95-1.28-.03,0-.06,0-.08,0h-.15c-.25,0-.49,.04-.71,.11-.12-.23-.27-.43-.46-.62-.48-.48-1.12-.75-1.8-.75h0c-.34,0-.67,.07-.97,.18-.13-.29-.3-.55-.53-.78-.48-.48-1.12-.75-1.8-.75h0c-.25,0-.51,.04-.75,.11v-4.93c0-1.4-1.13-2.55-2.54-2.55h0c-1.4,0-2.54,1.14-2.55,2.54l-.02,10.83c-.46-.41-1.07-.66-1.72-.66-.29,0-.58,.05-.85,.15-.65,.23-1.17,.7-1.47,1.32-.3,.62-.34,1.33-.11,1.98l2.07,5.88c.11,.42,.26,.84,.44,1.23,.51,1.16,1.29,2.21,2.25,3.05,.97,.84,2.13,1.47,3.36,1.81,.76,.21,1.54,.32,2.33,.32h.01c.5,0,1-.04,1.49-.13,1.26-.22,2.43-.7,3.49-1.44,.04-.03,.08-.05,.12-.08,1.09-.79,1.99-1.83,2.62-3.02,.64-1.23,.98-2.62,.99-4.01v-5.16c.01-1.48-.22-2.59-.68-3.37Zm-10.26,2.88c.17,.03,.34-.02,.48-.13,.13-.11,.21-.28,.21-.45v-3.62c0-.53,.55-1.03,1.12-1.03,.27,0,.52,.11,.71,.3,.19,.19,.3,.45,.3,.71v4.16c0,.33,.26,.59,.58,.59h0c.33,0,.59-.26,.59-.59v-2.82c.01-.53,.54-1,1.12-1h0c.27,0,.52,.11,.71,.3s.3,.44,.3,.71v3.34c0,.29,.21,.54,.49,.58h0c.17,.03,.34-.02,.48-.13,.13-.11,.21-.28,.21-.45v-2.09c0-.31,.08-.57,.22-.75,.13-.16,.32-.25,.56-.24h.12c1.06,.12,1.22,2,1.22,3.11v5.16c-.01,2.28-1.12,4.45-2.97,5.79-.03,.02-.06,.05-.1,.07-.87,.61-1.83,1-2.87,1.18-.41,.07-.82,.11-1.24,.11-.65,0-1.3-.09-1.92-.26-2.07-.58-3.75-2.04-4.62-4-.15-.34-.27-.69-.37-1.04,0-.01,0-.03-.01-.04l-2.08-5.91c-.09-.26-.08-.55,.05-.8,.12-.25,.33-.44,.6-.54,.11-.04,.23-.06,.35-.06,.43,0,.84,.27,.99,.7l1.11,3.16c.1,.27,.37,.43,.66,.39,.28-.05,.49-.29,.49-.58l.02-15.38c0-.56,.45-1.01,1.01-1.01h0c.56,0,1.01,.45,1.01,1.01l-.02,11c0,.29,.21,.54,.5,.59Z"/></g></svg>