<?xml version="1.0" encoding="UTF-8"?><svg id="Tryb_izolacji" xmlns="http://www.w3.org/2000/svg" viewBox="0 0 36.29 31.96"><defs><style>.cls-1{fill:none;stroke:#e4e84c;stroke-linecap:round;stroke-linejoin:round;stroke-width:1.13px;}.cls-2{fill:#e4e84c;fill-rule:evenodd;}</style></defs><path class="cls-1" d="M29.61,19.27c-1-1.98-4.28-1.43-6.09-.33-.37-.65-1.39-1.96-2.34-1.96s-2.34,1.92-2.34,3.15,2.03,1.76,3.09,1.88c-.19,.62-.74,1.74-.82,2.42-.67,5.64-5.31,6.23-7.33,6.55M19.13,.65c1.25,.21,.71,3.12,1.81,3.51,1.03,.36,1.94-2.41,2.9-1.84,1.15,.61-.14,3.18,.82,3.91,.9,.68,2.52-1.65,3.29-.8,.94,.95-.99,2.97-.26,3.97,.68,.94,2.87-.74,3.38,.32,.66,1.21-1.74,2.49-1.31,3.68,.41,1.11,2.96,.24,3.18,1.41,.63,2.73-3.32,2.05-3.98,1.92-.13-.03-.25-.05-.37-.06,.12,.87,.46,1.76,1.01,2.61,.74,1.17,1.87,2.27,3.34,3.21,.23-.74,.87-1.22,1.55-1.09,.78,.14,1.33,1.01,1.21,1.95-.11,.93-.84,1.57-1.62,1.43-.09-.02-.18-.04-.26-.08-.25,.28-.51,.57-.76,.87-2.05,2.36-4.23,4.87-8.47,5.6-1.78,.3-6.56,.37-10.82-.16-2.37-.3-4.59-.79-6.12-1.53-.8,.11-3.07,.8-3.37,.35-.81-1.09,1.38-2.76,.79-3.87-.55-1.04-2.95,.26-3.32-.87-.49-1.3,2.07-2.16,1.79-3.4-.26-1.16-2.91-.72-2.97-1.91-.13-1.39,2.57-1.37,2.63-2.64,.06-1.18-2.62-1.63-2.35-2.78,.24-1.36,2.84-.46,3.24-1.63,.37-1.1-2.09-2.4-1.53-3.4,.6-1.2,2.86,.49,3.56-.49,.65-.92-1.38-2.95-.57-3.71,.9-.94,2.63,1.4,3.57,.7,.87-.66-.54-3.24,.44-3.7,1.12-.6,2.16,2.19,3.25,1.83,1.02-.33,.34-3.25,1.41-3.36,1.24-.2,1.5,2.78,2.65,2.79,1.07,.02,1.2-2.96,2.25-2.72h0Z"/><path class="cls-2" d="M27.31,22.22c.44,0,.79,.37,.79,.82s-.35,.82-.79,.82-.79-.37-.79-.82,.35-.82,.79-.82h0Z"/></svg>