<svg width="212" height="96" viewBox="0 0 212 96" fill="none" xmlns="http://www.w3.org/2000/svg">
<g clip-path="url(#clip0_1_2)">
<path d="M2.2 19.9C3.6 16.3 5.7 13.2 8.3 10.6C10.9 7.9 14 5.9 17.6 4.4C21.1 2.8 25 2 29.1 2C33.3 2 37.2 2.8 40.7 4.3C44.2 5.8 47.3 7.9 49.9 10.5C52.5 13.2 54.6 16.3 56 19.8C57.4 23.4 58.2 27.3 58.2 31.5C58.2 35.7 57.5 39.5 56 43.1C54.6 46.7 52.5 49.8 49.9 52.5C47.3 55.2 44.2 57.2 40.7 58.7C37.2 60.2 33.3 61 29.1 61C24.9 61 21.1 60.2 17.5 58.7C13.9 57.2 10.9 55.1 8.2 52.5C5.6 49.8 3.5 46.7 2.1 43.1C0.7 39.6 0 35.7 0 31.6C0 27.4 0.7 23.5 2.2 19.9ZM9 40.5C10.1 43.3 11.6 45.7 13.6 47.7C15.6 49.7 17.9 51.3 20.5 52.4C23.2 53.5 26 54.1 29.2 54.1C32.3 54.1 35.2 53.5 37.9 52.4C40.6 51.3 42.9 49.7 44.8 47.7C46.8 45.7 48.3 43.3 49.4 40.5C50.5 37.7 51 34.7 51 31.5C51 28.3 50.5 25.3 49.4 22.5C48.3 19.7 46.8 17.3 44.8 15.3C42.8 13.3 40.5 11.7 37.9 10.6C35.1 9.6 32.2 9 29.1 9C26 9 23.1 9.6 20.4 10.7C17.7 11.8 15.4 13.4 13.5 15.4C11.5 17.4 10 19.8 8.9 22.6C7.8 25.4 7.3 28.4 7.3 31.6C7.4 34.8 7.9 37.8 9 40.5Z" fill="#333333"/>
<path d="M76.4 38.6L75.7 40.1L67.2 60.3H59.4L86.1 0L112.7 60.3H105L96.6 40.6L95.9 39L86.1 15.9L76.4 38.6ZM73.6 36.5H99L101.5 43.1H71.1L73.6 36.5Z" fill="#333333"/>
<path d="M116 2.9H156.2L126 53.7H154.5V60.3H114.3L144.5 9.5H116V2.9Z" fill="#333333"/>
<path d="M175.2 38.6L174.5 40.1L166 60.3H158.2L184.9 0L211.5 60.3H203.7L195.3 40.6L194.6 39L184.8 15.9L175.2 38.6ZM172.4 36.5H197.8L200.3 43.1H170L172.4 36.5Z" fill="#333333"/>
<path d="M37.5 76.3H48.5V77.7H43.7V94.5H42.3V77.6H37.5V76.3V76.3Z" fill="#333333"/>
<path d="M66 76.3L59.9 87V94.5H58.5V87L52.5 76.3H54.1L59.2 85.7L64.4 76.3H66Z" fill="#333333"/>
<path d="M86.3 76.3V95.2L72.5 79.3V94.5H71.1V75.6L84.9 91.5V76.3H86.3Z" fill="#333333"/>
<path d="M94.7 76.3V94.5H93.3V76.3H94.7Z" fill="#333333"/>
<path d="M103 76.3V94.5H101.6V76.3H103ZM102.3 76.3H111.3V77.7H102.3V76.3ZM102.3 83.8H110.8V85.2H102.3V83.8ZM102.3 93.1H111.3V94.5H102.3V93.1Z" fill="#333333"/>
<path d="M119.1 88.5C119.5 89.5 120 90.3 120.7 91C121.4 91.7 122.1 92.2 123 92.6C123.9 93 124.9 93.2 125.9 93.2C126.8 93.2 127.6 93.1 128.3 92.9C129 92.7 129.7 92.4 130.2 92C130.8 91.6 131.3 91.2 131.7 90.7V92.6C130.9 93.3 130.1 93.8 129.2 94.1C128.3 94.4 127.2 94.6 125.8 94.6C124.5 94.6 123.4 94.4 122.3 93.9C121.2 93.4 120.3 92.8 119.5 92C118.7 91.2 118.1 90.2 117.6 89C117.1 87.8 116.9 86.6 116.9 85.3C116.9 84 117.1 82.7 117.6 81.6C118.1 80.5 118.7 79.5 119.5 78.6C120.3 77.7 121.2 77.1 122.3 76.7C123.4 76.2 124.5 76 125.8 76C127.1 76 128.3 76.2 129.2 76.5C130.1 76.8 130.9 77.3 131.7 78V80C131.2 79.5 130.7 79 130.1 78.7C129.5 78.3 128.9 78 128.1 77.9C127.4 77.7 126.6 77.6 125.8 77.6C124.8 77.6 123.8 77.8 122.9 78.2C122 78.6 121.2 79.1 120.6 79.8C119.9 80.5 119.4 81.3 119 82.3C118.6 83.3 118.4 84.3 118.4 85.5C118.6 86.5 118.7 87.6 119.1 88.5Z" fill="#333333"/>
<path d="M139.8 76.3V94.5H138.4V76.3H139.8ZM149.2 76.3L141.2 84.8L149.6 94.5H147.8L139.5 84.9L147.5 76.3H149.2V76.3Z" fill="#333333"/>
<path d="M157.1 87.5L156.9 87.8L154.2 94.5H152.6L160.6 75.6L168.6 94.5H167L164.3 87.9L164.2 87.6L160.6 78.9L157.1 87.5ZM156.5 87H164.9L165.4 88.4H156L156.5 87Z" fill="#333333"/>
</g>
<defs>
<clipPath id="clip0_1_2">
<rect width="211.6" height="95.2" fill="white"/>
</clipPath>
</defs>
</svg>
