<?xml version="1.0" encoding="utf-8"?>
<!-- Generator: Adobe Illustrator 26.3.1, SVG Export Plug-In . SVG Version: 6.00 Build 0)  -->
<svg version="1.1" id="Warstwa_1" xmlns="http://www.w3.org/2000/svg" xmlns:xlink="http://www.w3.org/1999/xlink" x="0px" y="0px"
	 viewBox="0 0 211.6 95.2" style="enable-background:new 0 0 211.6 95.2;" xml:space="preserve">
<style type="text/css">
	.st0{fill:#FFFFFF;}
</style>
<g>
	<path class="st0" d="M2.2,19.9c1.4-3.6,3.5-6.7,6.1-9.3c2.6-2.7,5.7-4.7,9.3-6.2C21.1,2.8,25,2,29.1,2c4.2,0,8.1,0.8,11.6,2.3
		c3.5,1.5,6.6,3.6,9.2,6.2c2.6,2.7,4.7,5.8,6.1,9.3c1.4,3.6,2.2,7.5,2.2,11.7c0,4.2-0.7,8-2.2,11.6c-1.4,3.6-3.5,6.7-6.1,9.4
		c-2.6,2.7-5.7,4.7-9.2,6.2c-3.5,1.5-7.4,2.3-11.6,2.3c-4.2,0-8-0.8-11.6-2.3c-3.6-1.5-6.6-3.6-9.3-6.2c-2.6-2.7-4.7-5.8-6.1-9.4
		C0.7,39.6,0,35.7,0,31.6C0,27.4,0.7,23.5,2.2,19.9z M9,40.5c1.1,2.8,2.6,5.2,4.6,7.2c2,2,4.3,3.6,6.9,4.7c2.7,1.1,5.5,1.7,8.7,1.7
		c3.1,0,6-0.6,8.7-1.7c2.7-1.1,5-2.7,6.9-4.7c2-2,3.5-4.4,4.6-7.2c1.1-2.8,1.6-5.8,1.6-9c0-3.2-0.5-6.2-1.6-9
		c-1.1-2.8-2.6-5.2-4.6-7.2c-2-2-4.3-3.6-6.9-4.7C35.1,9.6,32.2,9,29.1,9c-3.1,0-6,0.6-8.7,1.7c-2.7,1.1-5,2.7-6.9,4.7
		c-2,2-3.5,4.4-4.6,7.2c-1.1,2.8-1.6,5.8-1.6,9C7.4,34.8,7.9,37.8,9,40.5z"/>
	<path class="st0" d="M76.4,38.6l-0.7,1.5l-8.5,20.2h-7.8L86.1,0l26.6,60.3H105l-8.4-19.7L95.9,39l-9.8-23.1L76.4,38.6z M73.6,36.5
		H99l2.5,6.6H71.1L73.6,36.5z"/>
	<path class="st0" d="M116,2.9h40.2L126,53.7h28.5v6.6h-40.2l30.2-50.8H116V2.9z"/>
	<path class="st0" d="M175.2,38.6l-0.7,1.5L166,60.3h-7.8L184.9,0l26.6,60.3h-7.8l-8.4-19.7l-0.7-1.6l-9.8-23.1L175.2,38.6z
		 M172.4,36.5h25.4l2.5,6.6h-30.3L172.4,36.5z"/>
</g>
<g>
	<path class="st0" d="M37.5,76.3h11v1.4h-4.8v16.8h-1.4V77.6h-4.8V76.3z"/>
	<path class="st0" d="M66,76.3L59.9,87v7.5h-1.4V87l-6-10.7h1.6l5.1,9.4l5.2-9.4H66z"/>
	<path class="st0" d="M86.3,76.3v18.9L72.5,79.3v15.2h-1.4V75.6l13.8,15.9V76.3H86.3z"/>
	<path class="st0" d="M94.7,76.3v18.2h-1.4V76.3H94.7z"/>
	<path class="st0" d="M103,76.3v18.2h-1.4V76.3H103z M102.3,76.3h9v1.4h-9V76.3z M102.3,83.8h8.5v1.4h-8.5V83.8z M102.3,93.1h9v1.4
		h-9V93.1z"/>
	<path class="st0" d="M119.1,88.5c0.4,1,0.9,1.8,1.6,2.5c0.7,0.7,1.4,1.2,2.3,1.6c0.9,0.4,1.9,0.6,2.9,0.6c0.9,0,1.7-0.1,2.4-0.3
		c0.7-0.2,1.4-0.5,1.9-0.9c0.6-0.4,1.1-0.8,1.5-1.3v1.9c-0.8,0.7-1.6,1.2-2.5,1.5c-0.9,0.3-2,0.5-3.4,0.5c-1.3,0-2.4-0.2-3.5-0.7
		s-2-1.1-2.8-1.9s-1.4-1.8-1.9-3s-0.7-2.4-0.7-3.7s0.2-2.6,0.7-3.7c0.5-1.1,1.1-2.1,1.9-3s1.7-1.5,2.8-1.9c1.1-0.5,2.2-0.7,3.5-0.7
		c1.3,0,2.5,0.2,3.4,0.5c0.9,0.3,1.7,0.8,2.5,1.5V80c-0.5-0.5-1-1-1.6-1.3c-0.6-0.4-1.2-0.7-2-0.8c-0.7-0.2-1.5-0.3-2.3-0.3
		c-1,0-2,0.2-2.9,0.6c-0.9,0.4-1.7,0.9-2.3,1.6c-0.7,0.7-1.2,1.5-1.6,2.5c-0.4,1-0.6,2-0.6,3.2C118.6,86.5,118.7,87.6,119.1,88.5z"
		/>
	<path class="st0" d="M139.8,76.3v18.2h-1.4V76.3H139.8z M149.2,76.3l-8,8.5l8.4,9.7h-1.8l-8.3-9.6l8-8.6H149.2z"/>
	<path class="st0" d="M157.1,87.5l-0.2,0.3l-2.7,6.7h-1.6l8-18.9l8,18.9h-1.6l-2.7-6.6l-0.1-0.3l-3.6-8.7L157.1,87.5z M156.5,87h8.4
		l0.5,1.4H156L156.5,87z"/>
</g>
</svg>
