<svg width="24" height="24" viewBox="0 0 24 24" fill="none" xmlns="http://www.w3.org/2000/svg">
<g clip-path="url(#clip0_4_4)">
<path d="M23.9 12C23.9 18.5722 18.5722 23.9 12 23.9C5.42781 23.9 0.1 18.5722 0.1 12C0.1 5.42781 5.42781 0.1 12 0.1C18.5722 0.1 23.9 5.42781 23.9 12Z" fill="#E1E152" stroke="black" stroke-width="0.2"/>
<path d="M3.32402 9.69602C3.44402 9.39602 3.62402 9.13202 3.84002 8.90402C4.06802 8.67602 4.32002 8.50802 4.63202 8.37602C4.93202 8.24402 5.25602 8.18402 5.61602 8.18402C5.97602 8.18402 6.30002 8.24402 6.60002 8.37602C6.90002 8.50802 7.16402 8.67602 7.38002 8.90402C7.60802 9.13202 7.77602 9.39602 7.89602 9.69602C8.01602 9.99602 8.07602 10.332 8.07602 10.692C8.07602 11.04 8.01602 11.376 7.89602 11.676C7.77602 11.988 7.59602 12.252 7.38002 12.468C7.15202 12.696 6.90002 12.864 6.60002 12.996C6.30002 13.128 5.97602 13.188 5.61602 13.188C5.26802 13.188 4.93202 13.128 4.63202 12.996C4.33202 12.864 4.06802 12.696 3.84002 12.468C3.61202 12.24 3.44402 11.976 3.32402 11.676C3.20402 11.364 3.14402 11.04 3.14402 10.692C3.13202 10.32 3.19202 9.99602 3.32402 9.69602ZM3.90002 11.448C3.99602 11.688 4.11602 11.88 4.28402 12.06C4.45202 12.228 4.64402 12.36 4.87202 12.456C5.10002 12.552 5.34002 12.6 5.60402 12.6C5.86802 12.6 6.10802 12.552 6.33602 12.456C6.56402 12.36 6.75602 12.228 6.92402 12.06C7.09202 11.892 7.22402 11.688 7.30802 11.448C7.40402 11.208 7.44002 10.956 7.44002 10.68C7.44002 10.404 7.39202 10.152 7.30802 9.91202C7.21202 9.67202 7.09202 9.48002 6.92402 9.30002C6.75602 9.13202 6.56402 9.00002 6.33602 8.90402C6.10802 8.80802 5.86802 8.76002 5.60402 8.76002C5.34002 8.76002 5.10002 8.80802 4.87202 8.90402C4.64402 9.00002 4.45202 9.13202 4.28402 9.30002C4.11602 9.46802 3.98402 9.67202 3.90002 9.91202C3.80402 10.152 3.76802 10.404 3.76802 10.68C3.75602 10.956 3.80402 11.208 3.90002 11.448Z" fill="#010202"/>
<path d="M9.62402 11.28L9.56402 11.4L8.84402 13.116H8.18402L10.452 7.992L12.72 13.116H12.06L11.352 11.448L11.28 11.316L10.44 9.348L9.62402 11.28ZM9.38402 11.1H11.544L11.748 11.652H9.18002L9.38402 11.1Z" fill="#010202"/>
<path d="M12.996 8.24402H16.404L13.836 12.564H16.26V13.116H12.852L15.42 8.79602H12.996V8.24402V8.24402Z" fill="#010202"/>
<path d="M18.024 11.28L17.964 11.4L17.244 13.116H16.584L18.84 8.00403L21.108 13.128H20.448L19.74 11.46L19.68 11.316L18.84 9.34803L18.024 11.28ZM17.784 11.1H19.944L20.148 11.652H17.568L17.784 11.1Z" fill="#010202"/>
<path d="M6.32404 14.484H7.26004V14.604H6.85204V16.032H6.73204V14.604H6.32404V14.484Z" fill="#010202"/>
<path d="M8.74801 14.484L8.23201 15.396V16.032H8.11201V15.396L7.59601 14.484H7.72801L8.16001 15.288L8.60401 14.484H8.74801V14.484Z" fill="#010202"/>
<path d="M10.464 14.484V16.092L9.28803 14.748V16.044H9.16803V14.436L10.344 15.792V14.496H10.464V14.484Z" fill="#010202"/>
<path d="M11.1721 14.484V16.032H11.0521V14.484H11.1721V14.484Z" fill="#010202"/>
<path d="M11.892 14.484V16.032H11.772V14.484H11.892V14.484ZM11.832 14.484H12.6V14.604H11.832V14.484ZM11.832 15.12H12.552V15.24H11.832V15.12ZM11.832 15.912H12.6V16.032H11.832V15.912Z" fill="#010202"/>
<path d="M13.26 15.528C13.296 15.612 13.332 15.684 13.392 15.744C13.452 15.804 13.512 15.852 13.596 15.888C13.668 15.924 13.752 15.936 13.836 15.936C13.908 15.936 13.98 15.924 14.04 15.912C14.1 15.9 14.16 15.876 14.208 15.84C14.256 15.804 14.304 15.768 14.34 15.732V15.9C14.28 15.96 14.208 15.996 14.124 16.032C14.04 16.068 13.956 16.08 13.836 16.08C13.728 16.08 13.632 16.056 13.536 16.02C13.44 15.984 13.368 15.924 13.296 15.852C13.224 15.78 13.176 15.696 13.14 15.6C13.104 15.504 13.08 15.396 13.08 15.276C13.08 15.156 13.104 15.06 13.14 14.952C13.176 14.856 13.236 14.772 13.296 14.7C13.368 14.628 13.44 14.58 13.536 14.532C13.632 14.496 13.728 14.472 13.836 14.472C13.944 14.472 14.04 14.484 14.124 14.52C14.208 14.556 14.268 14.592 14.34 14.652V14.808C14.304 14.76 14.256 14.724 14.208 14.7C14.16 14.664 14.1 14.64 14.04 14.628C13.98 14.616 13.908 14.604 13.836 14.604C13.752 14.604 13.668 14.616 13.596 14.652C13.524 14.688 13.452 14.736 13.392 14.796C13.332 14.856 13.296 14.928 13.26 15.012C13.224 15.096 13.212 15.18 13.212 15.288C13.212 15.348 13.224 15.444 13.26 15.528Z" fill="#010202"/>
<path d="M15.012 14.484V16.032H14.892V14.484H15.012V14.484ZM15.816 14.484L15.132 15.204L15.84 16.02H15.684L14.976 15.204L15.648 14.472H15.816V14.484Z" fill="#010202"/>
<path d="M16.488 15.432L16.476 15.456L16.248 16.02H16.116L16.8 14.412L17.484 16.02H17.352L17.124 15.456L17.112 15.432L16.812 14.7L16.488 15.432ZM16.428 15.396H17.136L17.172 15.516H16.38L16.428 15.396Z" fill="#010202"/>
</g>
<defs>
<clipPath id="clip0_4_4">
<rect width="24" height="24" fill="white"/>
</clipPath>
</defs>
</svg>
