<svg width="378" height="239" viewBox="0 0 378 239" fill="none" xmlns="http://www.w3.org/2000/svg">
<path d="M353.076 115.61C354.956 118.91 353.766 123.13 350.466 124.97C347.156 126.85 342.986 125.7 341.106 122.4C339.226 119.1 340.376 114.92 343.676 113.04C344.736 112.4 345.926 112.12 347.076 112.12C349.456 112.12 351.806 113.36 353.086 115.61H353.076ZM34.2157 115.93C37.5257 117.76 38.7557 121.94 36.9757 125.29C35.1357 128.59 30.9657 129.83 27.6157 128.04C24.3057 126.21 23.0757 122.03 24.8557 118.73C26.0957 116.39 28.4757 115.11 30.9157 115.11C32.0157 115.11 33.1657 115.38 34.2157 115.93ZM320.556 132.58C322.026 136.07 320.416 140.15 316.936 141.62C313.446 143.13 309.366 141.53 307.896 138C306.386 134.51 308.036 130.47 311.516 129.01V128.97C312.386 128.6 313.306 128.42 314.226 128.42C316.886 128.42 319.406 129.98 320.556 132.59V132.58ZM66.6557 131.3C70.1857 132.72 71.8857 136.76 70.4157 140.29C68.9957 143.78 64.9957 145.47 61.4657 144.05C57.9257 142.63 56.2857 138.59 57.7057 135.1C58.7657 132.39 61.3257 130.79 64.0857 130.79C64.9557 130.79 65.8257 130.97 66.6557 131.29V131.3ZM286.326 145.89C287.426 149.51 285.406 153.37 281.736 154.47C278.116 155.57 274.256 153.51 273.156 149.88C272.056 146.26 274.116 142.4 277.746 141.3C278.396 141.07 279.076 140.98 279.766 140.98C282.696 140.98 285.456 142.91 286.326 145.89ZM100.606 143H100.646C104.266 144.06 106.426 147.86 105.376 151.49C104.366 155.16 100.556 157.27 96.8857 156.26C93.2157 155.2 91.1057 151.4 92.1157 147.77C92.9857 144.74 95.7357 142.72 98.7257 142.72C99.3657 142.72 100.006 142.81 100.606 142.99V143ZM250.866 155.29C251.556 159.05 249.076 162.63 245.356 163.32C241.596 164.01 238.016 161.53 237.326 157.81C236.636 154.05 239.116 150.47 242.836 149.78C243.296 149.69 243.706 149.64 244.116 149.64C247.376 149.64 250.266 151.98 250.866 155.28V155.29ZM135.656 150.84C139.416 151.44 141.986 155.01 141.346 158.73C140.746 162.49 137.166 165.02 133.456 164.42C129.696 163.78 127.176 160.24 127.766 156.53C128.316 153.14 131.256 150.75 134.556 150.75C134.926 150.75 135.286 150.75 135.656 150.84ZM214.576 160.66C214.846 164.47 212.006 167.77 208.196 168C204.386 168.28 201.126 165.43 200.856 161.62C200.586 157.81 203.476 154.55 207.236 154.28H207.696C211.316 154.28 214.346 157.03 214.576 160.66ZM171.356 154.65C175.166 154.83 178.096 158.05 177.916 161.85C177.736 165.66 174.476 168.59 170.716 168.41C166.906 168.23 163.976 164.97 164.156 161.21C164.336 157.49 167.366 154.65 171.036 154.65H171.356Z" fill="#E1E152"/>
</svg>
