<svg width="378" height="239" viewBox="0 0 378 239" fill="none" xmlns="http://www.w3.org/2000/svg">
<path d="M357.777 71.19C361.487 71.97 363.877 75.64 363.097 79.35C362.267 83.07 358.647 85.41 354.887 84.63C351.167 83.85 348.827 80.18 349.607 76.46C350.297 73.2 353.187 71 356.347 71C356.807 71 357.307 71.04 357.767 71.18L357.777 71.19ZM326.667 77.48C327.537 81.15 325.287 84.86 321.577 85.78C317.907 86.65 314.197 84.4 313.277 80.69C312.407 77.02 314.657 73.31 318.367 72.39C318.917 72.25 319.467 72.21 319.967 72.21C323.087 72.21 325.887 74.32 326.667 77.49V77.48ZM292.037 89.41C293.917 92.76 292.767 96.93 289.417 98.81C286.117 100.69 281.937 99.5 280.057 96.2C278.177 92.89 279.367 88.67 282.677 86.84C283.727 86.19 284.927 85.92 286.077 85.92C288.457 85.92 290.797 87.16 292.037 89.41ZM261.157 109.18C263.407 112.26 262.717 116.52 259.697 118.77C256.627 121.06 252.307 120.37 250.057 117.3C247.807 114.27 248.457 109.96 251.527 107.71C252.767 106.79 254.187 106.33 255.607 106.33C257.717 106.33 259.787 107.34 261.157 109.17V109.18ZM25.0565 110.33C28.0865 112.62 28.6366 116.94 26.3466 119.97C24.0566 123 19.6966 123.55 16.7166 121.26C13.6866 118.97 13.0965 114.61 15.4265 111.62C16.7565 109.83 18.8266 108.91 20.8866 108.91C22.3566 108.91 23.8266 109.37 25.0666 110.33H25.0565ZM231.467 130.8C233.537 133.96 232.657 138.23 229.447 140.34C226.287 142.41 222.017 141.49 219.957 138.32C217.887 135.11 218.767 130.84 221.977 128.78C223.127 128.05 224.407 127.68 225.697 127.68C227.947 127.68 230.147 128.78 231.477 130.8H231.467ZM54.9265 129.7C58.2765 131.49 59.5165 135.66 57.6765 139.01C55.8865 142.36 51.7165 143.6 48.3665 141.77C45.0165 139.98 43.7765 135.81 45.6165 132.45C46.8565 130.16 49.1966 128.87 51.6666 128.87C52.7666 128.87 53.8665 129.1 54.9265 129.7ZM87.4565 143.92C91.0365 145.11 92.9565 149.01 91.7665 152.64C90.5265 156.22 86.6265 158.15 83.0565 156.95C79.4365 155.71 77.5066 151.81 78.6966 148.24C79.7066 145.35 82.3665 143.56 85.2065 143.56C85.9365 143.56 86.7165 143.65 87.4565 143.93V143.92ZM199.627 149.01C200.957 152.59 199.167 156.53 195.587 157.86C192.007 159.19 188.067 157.35 186.737 153.82C185.407 150.24 187.247 146.3 190.817 144.97C191.597 144.65 192.377 144.51 193.207 144.51C196.007 144.51 198.617 146.25 199.627 149.01ZM121.817 151.99C125.577 152.5 128.237 155.94 127.737 159.7C127.237 163.46 123.797 166.12 119.987 165.62C116.227 165.11 113.567 161.67 114.067 157.91C114.527 154.42 117.507 151.95 120.907 151.95C121.177 151.95 121.507 151.95 121.817 151.99ZM164.347 158.92C164.757 162.68 161.957 166.03 158.197 166.4H158.157C154.397 166.77 151.047 164.01 150.677 160.2C150.307 156.44 153.067 153.04 156.827 152.72C157.057 152.68 157.287 152.68 157.517 152.68C161.057 152.68 164.027 155.34 164.357 158.92H164.347Z" fill="#E1E152"/>
</svg>
