<svg width="378" height="239" viewBox="0 0 378 239" fill="none" xmlns="http://www.w3.org/2000/svg">
<g clip-path="url(#clip0_1_26)">
<path d="M0.999971 26.1752C0.999971 25.2552 1.17998 24.3852 1.50998 23.5652C1.87998 22.6952 2.37996 21.9552 3.01996 21.3152C4.34996 20.0252 6.04998 19.2952 7.87998 19.2952C8.33998 19.2952 8.79996 19.3352 9.20996 19.4352C9.66996 19.5252 10.08 19.6652 10.5 19.8452C10.91 19.9852 11.32 20.2152 11.69 20.4452C12.1 20.7252 12.42 20.9952 12.75 21.3152C14.35 22.9152 15.04 25.2552 14.63 27.5052C14.54 27.9652 14.4 28.3752 14.26 28.7952C14.08 29.2552 13.85 29.6152 13.62 29.9852C13.35 30.3952 13.07 30.7152 12.75 31.0452C12.43 31.3652 12.1 31.6452 11.69 31.9152C11.32 32.1452 10.91 32.3752 10.5 32.5652C10.09 32.6952 9.66996 32.8352 9.20996 32.9352C8.79996 33.0252 8.33998 33.0652 7.87998 33.0652C6.04998 33.0652 4.29996 32.3352 3.01996 31.0452C1.73996 29.7552 0.999971 28.0152 0.999971 26.1752V26.1752Z" fill="#E1E152"/>
<path d="M39.31 28.9352V28.9752C43.07 28.6052 46.47 31.3552 46.79 35.1652C47.16 38.9252 44.4 42.2752 40.59 42.6452C36.83 43.0152 33.43 40.2152 33.11 36.4552C33.07 36.2252 33.07 35.9952 33.07 35.7652C33.07 32.2752 35.73 29.2952 39.31 28.9352V28.9352ZM70.09 19.7052C73.53 18.1052 77.61 19.6152 79.22 23.1052C80.83 26.5452 79.31 30.6352 75.87 32.2352C72.43 33.7952 68.3 32.2752 66.74 28.8352C66.28 27.9152 66.1 26.9552 66.1 25.9852C66.1 23.3752 67.57 20.8952 70.09 19.6952V19.7052Z" fill="#E1E152"/>
<path d="M102.03 5.03526C105.61 3.70526 109.55 5.53526 110.84 9.11526C112.17 12.6453 110.33 16.6353 106.75 17.9253V17.9653C103.17 19.2553 99.2299 17.4153 97.8999 13.8353C97.6299 13.0553 97.4899 12.2753 97.4899 11.4953C97.4899 8.65526 99.2299 6.03526 102.03 5.02526V5.03526ZM117.49 180.565C121.16 179.605 124.92 181.805 125.89 185.475C126.85 189.145 124.65 192.905 120.93 193.865C117.26 194.825 113.5 192.625 112.58 188.915V188.955C112.4 188.355 112.35 187.765 112.35 187.215C112.35 184.145 114.37 181.345 117.48 180.565H117.49ZM114.83 150.975C116.07 147.355 119.96 145.425 123.59 146.665C127.17 147.905 129.1 151.805 127.86 155.425C126.62 159.005 122.72 160.935 119.1 159.695C116.25 158.735 114.47 156.075 114.47 153.185C114.47 152.455 114.6 151.715 114.84 150.985L114.83 150.975ZM131.3 118.765C133.32 115.555 137.59 114.585 140.79 116.655C144 118.675 144.92 122.935 142.9 126.145C140.84 129.355 136.62 130.275 133.41 128.255C131.34 126.925 130.2 124.725 130.2 122.435C130.2 121.195 130.57 119.915 131.3 118.765V118.765ZM131.48 5.62526C132.21 1.90526 135.79 -0.574738 139.55 0.115262V0.125262H139.51C143.27 0.815262 145.75 4.39526 145.06 8.15526C144.33 11.8653 140.75 14.3453 137.03 13.6653C133.68 13.0153 131.38 10.1253 131.38 6.91526C131.38 6.50526 131.42 6.04526 131.47 5.63526L131.48 5.62526ZM132.9 211.065C135.24 208.045 139.6 207.535 142.58 209.915C145.51 212.255 146.07 216.565 143.68 219.595C141.34 222.525 137.03 223.085 134.04 220.695C132.3 219.315 131.42 217.345 131.42 215.285C131.42 213.815 131.88 212.305 132.89 211.055L132.9 211.065ZM149.83 89.9953C151.66 86.6953 155.88 85.5053 159.19 87.3353C162.49 89.2153 163.68 93.3953 161.85 96.7353C159.97 100.045 155.79 101.235 152.49 99.3553C150.24 98.1153 148.95 95.7753 148.95 93.3453C148.95 92.1953 149.23 91.0553 149.82 89.9953H149.83ZM161.85 20.8553C165.29 19.2053 169.37 20.7253 170.98 24.1653C172.59 27.6053 171.12 31.6853 167.68 33.2953C164.24 34.9053 160.16 33.4353 158.5 29.9953H158.54C158.08 29.0353 157.85 28.0653 157.85 27.0653C157.85 24.4953 159.32 22.0153 161.84 20.8653L161.85 20.8553ZM160.89 59.7653C161.58 56.0453 165.15 53.5753 168.87 54.2153C172.63 54.9053 175.11 58.4853 174.42 62.2453C173.73 65.9553 170.15 68.4353 166.44 67.7953C163.13 67.1553 160.79 64.2653 160.79 61.0053C160.79 60.5953 160.79 60.1853 160.88 59.7653H160.89ZM162.68 228.325C163.55 224.605 167.27 222.315 170.98 223.185C174.65 224.055 176.95 227.775 176.07 231.445C175.2 235.155 171.53 237.455 167.81 236.585C164.64 235.855 162.49 233.005 162.49 229.885C162.49 229.375 162.53 228.825 162.67 228.325H162.68ZM202.96 224.515C206.72 224.055 210.16 226.765 210.62 230.525C211.08 234.285 208.37 237.725 204.61 238.185C200.85 238.645 197.41 235.945 196.95 232.175C196.91 231.895 196.91 231.625 196.91 231.355C196.91 227.915 199.43 224.935 202.97 224.515H202.96ZM235.44 217.175C239.06 216.025 242.92 218.095 244.07 221.715C245.17 225.335 243.15 229.195 239.48 230.295C235.86 231.445 232 229.375 230.9 225.755C230.67 225.065 230.58 224.375 230.58 223.735C230.58 220.795 232.51 218.045 235.45 217.175H235.44ZM268.06 206.215C271.68 204.975 275.59 206.905 276.78 210.525C278.02 214.105 276.09 218.005 272.47 219.235C268.89 220.425 264.99 218.505 263.76 214.925C263.53 214.195 263.39 213.455 263.39 212.725C263.39 209.835 265.22 207.175 268.07 206.215H268.06ZM302.2 196.625V196.585C305.91 195.855 309.58 198.275 310.32 201.995C311.05 205.705 308.62 209.335 304.91 210.115V210.075C301.19 210.855 297.57 208.425 296.84 204.705C296.75 204.245 296.7 203.785 296.7 203.325C296.7 200.115 298.95 197.265 302.21 196.625H302.2ZM331.1 200.115C331.33 196.305 334.59 193.415 338.35 193.645C342.16 193.875 345.05 197.135 344.82 200.935C344.59 204.745 341.33 207.585 337.53 207.405C333.91 207.175 331.06 204.145 331.06 200.525C331.06 200.395 331.1 200.255 331.1 200.115Z" fill="#E1E152"/>
<path d="M364.46 209.465C364.46 208.545 364.64 207.675 365.01 206.845C365.33 206.025 365.84 205.245 366.48 204.605C367.12 203.955 367.9 203.455 368.73 203.135C369.55 202.765 370.43 202.585 371.34 202.585C373.18 202.585 374.92 203.315 376.21 204.605C377.81 206.205 378.55 208.595 378.09 210.845C378 211.255 377.91 211.715 377.72 212.135C377.54 212.545 377.31 212.955 377.07 213.325C376.84 213.695 376.52 214.055 376.2 214.335C374.91 215.625 373.17 216.355 371.33 216.355C370.42 216.355 369.54 216.215 368.72 215.845C367.89 215.475 367.11 215.025 366.47 214.335C365.18 213.055 364.45 211.315 364.45 209.475L364.46 209.465Z" fill="#E1E152"/>
</g>
<defs>
<clipPath id="clip0_1_26">
<rect width="378" height="239" fill="white"/>
</clipPath>
</defs>
</svg>
