<svg width="378" height="239" viewBox="0 0 378 239" fill="none" xmlns="http://www.w3.org/2000/svg">
<g clip-path="url(#clip0_2_3)">
<path d="M377.725 212.555C377.725 213.475 377.545 214.345 377.215 215.165C376.845 216.035 376.345 216.775 375.705 217.415C374.375 218.705 372.675 219.435 370.845 219.435C370.385 219.435 369.925 219.395 369.515 219.295C369.055 219.205 368.645 219.065 368.225 218.885C367.815 218.745 367.405 218.515 367.035 218.285C366.625 218.005 366.305 217.735 365.975 217.415C364.375 215.815 363.685 213.475 364.095 211.225C364.185 210.765 364.325 210.355 364.465 209.935C364.645 209.475 364.875 209.115 365.105 208.745C365.375 208.335 365.655 208.015 365.975 207.685C366.295 207.365 366.625 207.085 367.035 206.815C367.405 206.585 367.815 206.355 368.225 206.165C368.635 206.035 369.055 205.895 369.515 205.795C369.925 205.705 370.385 205.665 370.845 205.665C372.675 205.665 374.425 206.395 375.705 207.685C376.985 208.975 377.725 210.715 377.725 212.555V212.555Z" fill="#E1E152"/>
<path d="M339.415 209.795V209.755C335.655 210.125 332.255 207.375 331.935 203.565C331.565 199.805 334.325 196.455 338.135 196.085C341.895 195.715 345.295 198.515 345.615 202.275C345.655 202.505 345.655 202.735 345.655 202.965C345.655 206.455 342.995 209.435 339.415 209.795V209.795ZM308.635 219.025C305.195 220.625 301.115 219.115 299.505 215.625C297.895 212.185 299.415 208.095 302.855 206.495C306.295 204.935 310.425 206.455 311.985 209.895C312.445 210.815 312.625 211.775 312.625 212.745C312.625 215.355 311.155 217.835 308.635 219.035V219.025Z" fill="#E1E152"/>
<path d="M276.695 233.695C273.115 235.025 269.175 233.195 267.885 229.615C266.555 226.085 268.395 222.095 271.975 220.805V220.765C275.555 219.475 279.495 221.315 280.825 224.895C281.095 225.675 281.235 226.455 281.235 227.235C281.235 230.075 279.495 232.695 276.695 233.705V233.695ZM261.235 58.165C257.565 59.125 253.805 56.925 252.835 53.255C251.875 49.585 254.075 45.825 257.795 44.865C261.465 43.905 265.225 46.105 266.145 49.815V49.775C266.325 50.375 266.375 50.965 266.375 51.515C266.375 54.585 264.355 57.385 261.245 58.165H261.235ZM263.895 87.755C262.655 91.375 258.765 93.305 255.135 92.065C251.555 90.825 249.625 86.925 250.865 83.305C252.105 79.725 256.005 77.795 259.625 79.035C262.475 79.995 264.255 82.655 264.255 85.545C264.255 86.275 264.125 87.015 263.885 87.745L263.895 87.755ZM247.425 119.965C245.405 123.175 241.135 124.145 237.935 122.075C234.725 120.055 233.805 115.795 235.825 112.585C237.885 109.375 242.105 108.455 245.315 110.475C247.385 111.805 248.525 114.005 248.525 116.295C248.525 117.535 248.155 118.815 247.425 119.965V119.965ZM247.245 233.105C246.515 236.825 242.935 239.305 239.175 238.615V238.605H239.215C235.455 237.915 232.975 234.335 233.665 230.575C234.395 226.865 237.975 224.385 241.695 225.065C245.045 225.715 247.345 228.605 247.345 231.815C247.345 232.225 247.305 232.685 247.255 233.095L247.245 233.105ZM245.825 27.665C243.485 30.685 239.125 31.195 236.145 28.815C233.215 26.475 232.655 22.165 235.045 19.135C237.385 16.205 241.695 15.645 244.685 18.035C246.425 19.415 247.305 21.385 247.305 23.445C247.305 24.915 246.845 26.425 245.835 27.675L245.825 27.665ZM228.895 148.735C227.065 152.035 222.845 153.225 219.535 151.395C216.235 149.515 215.045 145.335 216.875 141.995C218.755 138.685 222.935 137.495 226.235 139.375C228.485 140.615 229.775 142.955 229.775 145.385C229.775 146.535 229.495 147.675 228.905 148.735H228.895ZM216.875 217.875C213.435 219.525 209.355 218.005 207.745 214.565C206.135 211.125 207.605 207.045 211.045 205.435C214.485 203.825 218.565 205.295 220.225 208.735H220.185C220.645 209.695 220.875 210.665 220.875 211.665C220.875 214.235 219.405 216.715 216.885 217.865L216.875 217.875ZM217.835 178.965C217.145 182.685 213.575 185.155 209.855 184.515C206.095 183.825 203.615 180.245 204.305 176.485C204.995 172.775 208.575 170.295 212.285 170.935C215.595 171.575 217.935 174.465 217.935 177.725C217.935 178.135 217.935 178.545 217.845 178.965H217.835ZM216.045 10.405C215.175 14.125 211.455 16.415 207.745 15.545C204.075 14.675 201.775 10.955 202.655 7.285C203.525 3.575 207.195 1.275 210.915 2.145C214.085 2.875 216.235 5.725 216.235 8.845C216.235 9.355 216.195 9.905 216.055 10.405H216.045ZM175.765 14.215C172.005 14.675 168.565 11.965 168.105 8.205C167.645 4.445 170.355 1.00501 174.115 0.545013C177.875 0.0850134 181.315 2.78501 181.775 6.55501C181.815 6.83501 181.815 7.105 181.815 7.375C181.815 10.815 179.295 13.795 175.755 14.215H175.765ZM143.285 21.555C139.665 22.705 135.805 20.635 134.655 17.015C133.555 13.395 135.575 9.53501 139.245 8.43501C142.865 7.28501 146.725 9.35501 147.825 12.975C148.055 13.665 148.145 14.355 148.145 14.995C148.145 17.935 146.215 20.685 143.275 21.555H143.285ZM110.665 32.515C107.045 33.755 103.135 31.825 101.945 28.205C100.705 24.625 102.635 20.725 106.255 19.495C109.835 18.305 113.735 20.225 114.965 23.805C115.195 24.535 115.335 25.275 115.335 26.005C115.335 28.895 113.505 31.555 110.655 32.515H110.665ZM76.525 42.105V42.145C72.815 42.875 69.145 40.455 68.405 36.735C67.675 33.025 70.105 29.395 73.815 28.615V28.655C77.535 27.875 81.155 30.305 81.885 34.025C81.975 34.485 82.025 34.945 82.025 35.405C82.025 38.615 79.775 41.465 76.515 42.105H76.525ZM47.625 38.615C47.395 42.425 44.135 45.315 40.375 45.085C36.565 44.855 33.675 41.595 33.905 37.795C34.135 33.985 37.395 31.145 41.195 31.325C44.815 31.555 47.665 34.585 47.665 38.205C47.665 38.335 47.625 38.475 47.625 38.615Z" fill="#E1E152"/>
<path d="M14.265 29.265C14.265 30.185 14.085 31.055 13.715 31.885C13.395 32.705 12.885 33.485 12.245 34.125C11.605 34.775 10.825 35.275 9.99499 35.595C9.17499 35.965 8.29499 36.145 7.38499 36.145C5.54499 36.145 3.80499 35.415 2.51499 34.125C0.914991 32.525 0.174991 30.135 0.634991 27.885C0.724991 27.475 0.814991 27.015 1.00499 26.595C1.18499 26.185 1.41499 25.775 1.65499 25.405C1.88499 25.035 2.20499 24.675 2.52499 24.395C3.81499 23.105 5.55499 22.375 7.39499 22.375C8.30499 22.375 9.18499 22.515 10.005 22.885C10.835 23.255 11.615 23.705 12.255 24.395C13.545 25.675 14.275 27.415 14.275 29.255L14.265 29.265Z" fill="#E1E152"/>
</g>
<defs>
<clipPath id="clip0_2_3">
<rect width="238.23" height="377.22" fill="white" transform="translate(0.505005 238.725) rotate(-90)"/>
</clipPath>
</defs>
</svg>
