<svg width="378" height="239" viewBox="0 0 378 239" fill="none" xmlns="http://www.w3.org/2000/svg">
<path d="M357.937 171.543C355.737 168.463 356.427 164.153 359.497 161.953C362.567 159.713 366.887 160.393 369.127 163.463C371.327 166.583 370.637 170.853 367.567 173.103C366.327 173.973 364.907 174.383 363.527 174.383C361.417 174.383 359.307 173.423 357.927 171.543H357.937ZM7.18672 152.953C6.31672 149.283 8.56671 145.573 12.2767 144.653C15.9467 143.783 19.6567 146.033 20.5767 149.743C21.4467 153.413 19.1967 157.123 15.4867 158.043C14.9367 158.183 14.3867 158.223 13.8867 158.223C10.7667 158.223 7.96672 156.113 7.18672 152.943V152.953ZM335.267 143.913C332.657 141.163 332.747 136.803 335.497 134.183C338.257 131.573 342.607 131.703 345.227 134.463C347.847 137.213 347.747 141.573 344.997 144.193C343.667 145.433 341.927 146.073 340.267 146.073C338.437 146.073 336.597 145.343 335.267 143.923V143.913ZM41.8167 141.023C39.9367 137.673 41.0867 133.503 44.4367 131.623C47.7367 129.743 51.9167 130.933 53.7967 134.233C55.6767 137.543 54.4867 141.763 51.1767 143.593C50.1267 144.243 48.9267 144.513 47.7767 144.513C45.3967 144.513 43.0567 143.273 41.8167 141.023ZM72.6967 121.253C70.4467 118.173 71.1367 113.913 74.1567 111.663C77.2267 109.373 81.5467 110.063 83.7967 113.133C86.0467 116.163 85.3967 120.473 82.3267 122.723C81.0867 123.643 79.6667 124.103 78.2467 124.103C76.1367 124.103 74.0667 123.093 72.6967 121.263V121.253ZM308.797 120.103C305.767 117.813 305.217 113.493 307.507 110.463C309.797 107.433 314.157 106.883 317.137 109.173C320.167 111.463 320.757 115.823 318.427 118.813C317.097 120.603 315.027 121.523 312.967 121.523C311.497 121.523 310.027 121.063 308.787 120.103H308.797ZM102.387 99.6332C100.317 96.4732 101.197 92.2032 104.407 90.0932C107.567 88.0232 111.837 88.9432 113.897 92.1132C115.967 95.3232 115.087 99.5932 111.877 101.653C110.727 102.383 109.447 102.753 108.157 102.753C105.907 102.753 103.707 101.653 102.377 99.6332H102.387ZM278.927 100.733C275.577 98.9432 274.337 94.7732 276.177 91.4232C277.967 88.0732 282.137 86.8332 285.487 88.6632C288.837 90.4532 290.077 94.6232 288.237 97.9832C286.997 100.273 284.657 101.563 282.187 101.563C281.087 101.563 279.987 101.333 278.927 100.733ZM246.397 86.5132C242.817 85.3232 240.897 81.4232 242.087 77.7932C243.327 74.2132 247.227 72.2832 250.797 73.4832C254.417 74.7232 256.347 78.6232 255.157 82.1932C254.147 85.0832 251.487 86.8732 248.647 86.8732C247.917 86.8732 247.137 86.7832 246.397 86.5032V86.5132ZM134.227 81.4232C132.897 77.8432 134.687 73.9032 138.267 72.5732C141.847 71.2432 145.787 73.0832 147.117 76.6132C148.447 80.1932 146.607 84.1332 143.037 85.4632C142.257 85.7832 141.477 85.9232 140.647 85.9232C137.847 85.9232 135.237 84.1832 134.227 81.4232ZM212.037 78.4432C208.277 77.9332 205.617 74.4932 206.117 70.7332C206.617 66.9732 210.057 64.3132 213.867 64.8132C217.627 65.3232 220.287 68.7632 219.787 72.5232C219.327 76.0132 216.347 78.4832 212.947 78.4832C212.677 78.4832 212.347 78.4832 212.037 78.4432ZM169.507 71.5132C169.097 67.7532 171.897 64.4032 175.657 64.0332H175.697C179.457 63.6632 182.807 66.4232 183.177 70.2332C183.547 73.9932 180.787 77.3932 177.027 77.7132C176.797 77.7532 176.567 77.7532 176.337 77.7532C172.797 77.7532 169.827 75.0932 169.497 71.5132H169.507Z" fill="#E1E152"/>
</svg>
