<?xml version="1.0" encoding="UTF-8"?><svg id="icons" xmlns="http://www.w3.org/2000/svg" viewBox="0 0 21.95 23"><defs><style>.cls-1{fill:none;stroke:#f50000;stroke-miterlimit:10;}</style></defs><polygon class="cls-1" points="7.31 5.21 7.31 .5 21.45 .5 21.45 18.31 16.21 18.31 16.21 22.5 .5 22.5 .5 5.21 7.31 5.21"/><path class="cls-1" d="M6.26,13.07h0c0-.86,.71-1.57,1.57-1.57h0c.86,0,1.57,.71,1.57,1.57h0v3.14"/><path class="cls-1" d="M9.4,13.07h0c0-.86,.71-1.57,1.57-1.57h0c.86,0,1.57,.71,1.57,1.57h0v3.14"/><line class="cls-1" x1="6.26" y1="16.21" x2="6.26" y2="10.98"/><path class="cls-1" d="M16.21,9.4v1.05h-2.62v-.52c1.57-1.56,2.12-1.88,2.39-2.41,.2-.4,.36-1.55-.53-1.86-.73-.25-1.64-.05-1.87,.95m.23,3.29"/></svg>