<?xml version="1.0" encoding="utf-8"?>
<!-- Generator: Adobe Illustrator 26.3.1, SVG Export Plug-In . SVG Version: 6.00 Build 0)  -->
<svg version="1.1" id="Warstwa_1" xmlns="http://www.w3.org/2000/svg" xmlns:xlink="http://www.w3.org/1999/xlink" x="0px" y="0px"
	 viewBox="0 0 53.5 52.2" style="enable-background:new 0 0 53.5 52.2;" xml:space="preserve">
<style type="text/css">
	
		.st0{display:none;fill:none;stroke:#BCB820;stroke-width:2.1676;stroke-linecap:round;stroke-linejoin:round;stroke-miterlimit:22.9256;}
	.st1{display:none;}
	
		.st2{display:inline;fill:none;stroke:#BCB820;stroke-width:2.1306;stroke-linecap:round;stroke-linejoin:round;stroke-miterlimit:22.9256;}
	
		.st3{display:inline;fill:none;stroke:#BCB820;stroke-width:2.0617;stroke-linecap:round;stroke-linejoin:round;stroke-miterlimit:22.9256;}
	.st4{fill:none;stroke:#BCB820;stroke-width:2.0617;stroke-linecap:round;stroke-linejoin:round;stroke-miterlimit:22.9256;}
	.st5{display:none;fill:#BCB820;}
</style>
<path class="st0" d="M1.1,12.4L26.7,1.1l25.7,11.3v38.7h-7.7V16.2H8.8v34.9H1.1V12.4L1.1,12.4z M9.5,21.7h34.6 M9.4,27.2H44
	 M13.8,44.8c-0.5-1.7-1.6-4.3-0.4-5.8c1-1.2,1.9-0.9,3.3-0.9H37c1.3,0,2.1-0.2,3.1,1c1.2,1.5,0,4.1-0.6,5.8c-0.2,0.5-0.4,1-0.7,1.3
	c-0.3,0.4-0.6,0.6-1.1,0.6H26.7H15.6c-0.5,0-0.8-0.2-1.1-0.6C14.2,45.8,14,45.3,13.8,44.8L13.8,44.8z M21.3,47.7v2.2
	c0,0.7-0.6,1.2-1.2,1.2h-2.9c-0.7,0-1.2-0.6-1.2-1.2v-2.2 M37.5,47.7v2.2c0,0.7-0.6,1.2-1.2,1.2h-2.9c-0.7,0-1.2-0.6-1.2-1.2v-2.2
	 M16.6,42.3l3.4,1.2 M36.9,42.3l-3.4,1.2 M36.6,37.2c-0.9-2.3-1.8-3.5-3-4.2c-2-1.2-11.8-1.1-13.9,0c-1.2,0.7-2.1,1.9-2.9,4.1"/>
<g class="st1">
	<path class="st2" d="M50.1,51.1c-4.2-2.6-13.3-4.4-23.8-4.4c-10.1,0-18.9,1.7-23.3,4.1"/>
	<path class="st2" d="M36.5,46.5l0-21.2c-1.7-3.7-0.5-11.9,1.6-15.6"/>
	<path class="st2" d="M36.7,25.8c4-1.2,7.2-2.4,8.4-5.8"/>
	<path class="st2" d="M32.1,45.9c0-3.8,0.5-14.3-0.2-14.7c-2.5-1.6-4.2-0.8-6.3-5.1"/>
	<path class="st2" d="M31.8,37.1c-13.5,3.4-16.1-15.5-6.9-20.6c-0.4-1.3-0.5-2.7-0.4-4.2C25,6.1,29.9,1.1,35.4,1.1
		c5.1,0,9,4.2,9.3,9.7c4.4,0.7,7.6,5,7.2,10.1c-0.3,4.5-3.2,8.3-6.9,9.7"/>
	<path class="st2" d="M24.5,14.4c-3.5-0.8-7-6.2-8.3-9.7c-1.8,6.1-5.1,9.7-9.5,11.5c1.8,1,3.6,1.8,5.4,2.3c-2.1,3.8-4.3,6.4-8,7.9
		c1.8,1.1,3.8,1.9,6,2.4c-2.4,3.6-4.3,6-8.5,7.5c6.9,4.3,16.7,5.2,25.6,1.8"/>
	<line class="st2" x1="14.8" y1="40.1" x2="14.8" y2="46.7"/>
	<path class="st2" d="M47.2,29.7c0.3,1.3,0.5,2.8,0.1,4.2c-1.3,4.8-7.2,5.8-10.1,3.5"/>
	<line class="st2" x1="19" y1="40.1" x2="19" y2="46.1"/>
	<path class="st2" d="M35,17.4c-1.5-1.3-2.6-2.4-2.9-4.7"/>
</g>
<g class="st1">
	<path class="st3" d="M11.2,31.9c5.3,0,9.5,4.3,9.5,9.5c0,5.3-4.3,9.5-9.5,9.5c-5.3,0-9.5-4.3-9.5-9.5C1.7,36.1,5.9,31.9,11.2,31.9
		L11.2,31.9z"/>
	<path class="st3" d="M42.3,32c5.3,0,9.5,4.3,9.5,9.5s-4.3,9.5-9.5,9.5c-5.3,0-9.5-4.3-9.5-9.5S37,32,42.3,32L42.3,32z"/>
	<path class="st3" d="M32.3,1.1c2.6,0,4.8,2.1,4.8,4.8c0,2.6-2.1,4.8-4.8,4.8c-2.6,0-4.8-2.1-4.8-4.8C27.6,3.2,29.7,1.1,32.3,1.1
		L32.3,1.1z"/>
	<line class="st3" x1="28.6" y1="3.7" x2="41" y2="8.4"/>
	<line class="st3" x1="37.9" y1="22.7" x2="42.3" y2="41.6"/>
	<path class="st3" d="M19.7,15.7l-2.5,5.5c-0.6,1.3-0.3,4.2,1.1,4.8l1.6,0.7l0.5,0.2l6.9,3.3l-4.1,9.9c-0.6,1.5-0.1,3.3,1.5,4.1l0,0
		c1.5,0.7,3.4,0.1,4.1-1.5L34,30.2c0-1.6,0.1-3.3-1.4-4l-0.1,0l-7.2-3.4l2-4.3l4.3,4.2c1.5,1.5,6.7-0.1,9-0.5c1.4-0.2,2.2-1.6,2.2-3
		v0c0-1.5-1.6-2.4-3-2.2l-5.5,0.8c-0.9-0.8-6.2-5.1-6.7-5.4l-2-1c-1.3-0.6-3.6-0.7-4.3,0.7L19.7,15.7"/>
	<polyline class="st3" points="22.8,41.4 11.2,41.4 18,27.9 	"/>
	<line class="st3" x1="14.1" y1="26.9" x2="21.9" y2="27.9"/>
	<line class="st3" x1="1.7" y1="10.8" x2="17.7" y2="10.8"/>
	<line class="st3" x1="6.2" y1="5.3" x2="23.2" y2="5.3"/>
	<line class="st3" x1="5" y1="16.2" x2="14.1" y2="16.1"/>
</g>
<path class="st4" d="M21.4,48.5c0,3.4-5.8,3.6-5.8,0 M15.6,40.3v8.1c0,3.5-5.7,3.5-5.7,0l0.2-9L7.3,39l3.9-16.1l-5.4,7.3
	c-0.7,0.9-1.6,1.6-2.7,1.2l0,0C2,31,1.5,29.8,1.9,28.7l6.5-10.6c1.3-3.4,13.4-3.3,14.7,0l1.4,2.5 M15.5,3.1c2.7,0,4.8,2.2,4.8,4.8
	c0,1.8-1,3.4-2.4,4.2c-0.7,0.4-1.5,0.7-2.4,0.7c-2.7,0-4.8-2.2-4.8-4.8c0-1.8,1-3.4,2.4-4.2C13.8,3.4,14.6,3.1,15.5,3.1L15.5,3.1z
	 M26.6,44.2V49c0,2.7-5.3,2.7-5.2,0l0.2-4.9L19,43.7l3.6-9.1 M20.6,39.1c-0.5,0.8-0.9,0.9-1.9,0.6 M18.8,39.7L18.8,39.7 M18.8,39.7
	c-1-0.3-1.5-1.3-1.1-2.1 M17.7,37.6l2.3-5.9c1.2-2.6,12.4-2.6,13.5,0L36,38c0.4,0.8-0.1,1.8-1.1,2.1l0,0c-1,0.3-1.4-0.2-2-0.9
	 M30.8,34.6l3.9,9.1l-2.9,0.5L32,49c0,2.6-5.4,2.8-5.4,0 M26.8,20.9c2.4,0,4.4,2,4.4,4.4c0,2.4-2,4.4-4.4,4.4c-2.4,0-4.4-2-4.4-4.4
	C22.4,22.8,24.4,20.9,26.8,20.9L26.8,20.9z M32,48.4c0,3.7,6.7,3.4,6.7,0 M38.7,33.8l0,14.6c0,3.4,6.4,3.4,6.4-0.1l-0.1-10.3
	l-0.2-16.8l2.6,7.6c1.7,4.6,5.1,1.6,4.3-0.5l-2.9-12.3c-0.9-3.7-19.8-3.5-20.4,0L27.5,20 M38.3,1.1c2.7,0,4.8,2.2,4.8,4.8
	c0,1.8-1,3.4-2.4,4.2c-0.7,0.4-1.5,0.7-2.4,0.7c-2.7,0-4.8-2.2-4.8-4.8c0-1.8,1-3.4,2.4-4.2C36.6,1.3,37.4,1.1,38.3,1.1L38.3,1.1z"
	/>
<g class="st1">
	<path class="st3" d="M21.7,36V4.8c0-2.1,1.7-3.7,3.7-3.7l0,0c2.1,0,3.7,1.7,3.7,3.7"/>
	<path class="st3" d="M43.9,36V4.8c0-2.1,1.7-3.7,3.7-3.7l0,0c2.1,0,3.7,1.7,3.7,3.7"/>
	<line class="st3" x1="43" y1="18.8" x2="21.7" y2="18.8"/>
	<line class="st3" x1="43" y1="29.6" x2="21.7" y2="29.6"/>
	<path class="st3" d="M52.2,37.5c-1.1,2.6-3.6,4.4-6.5,4.4c-2.8,0-5.2-1.6-6.3-3.9c-1.2,2.3-3.5,3.9-6.3,3.9c-2.8,0-5.2-1.6-6.3-3.9
		c-1.2,2.3-3.5,3.9-6.3,3.9c-2.8,0-5.2-1.6-6.3-3.9c-1.2,2.3-3.5,3.9-6.3,3.9c-2.9,0-5.5-1.8-6.5-4.4"/>
	<path class="st3" d="M52.2,46.7c-1.1,2.6-3.6,4.4-6.5,4.4c-2.8,0-5.2-1.6-6.3-3.9c-1.2,2.3-3.5,3.9-6.3,3.9c-2.8,0-5.2-1.6-6.3-3.9
		c-1.2,2.3-3.5,3.9-6.3,3.9c-2.8,0-5.2-1.6-6.3-3.9c-1.2,2.3-3.5,3.9-6.3,3.9c-2.9,0-5.5-1.8-6.5-4.4"/>
</g>
<path class="st5" d="M52.4,52.2h-7.7c-0.6,0-1.1-0.5-1.1-1.1V28.3H9.9v22.8c0,0.6-0.5,1.1-1.1,1.1H1.1c-0.6,0-1.1-0.5-1.1-1.1V12.4
	c0-0.4,0.3-0.8,0.6-1L26.3,0.1c0.3-0.1,0.6-0.1,0.9,0l25.7,11.3c0.4,0.2,0.6,0.6,0.6,1v38.7C53.5,51.7,53,52.2,52.4,52.2z M45.8,50
	h5.6V13.1L26.7,2.3L2.2,13.1V50h5.6V16.2c0-0.6,0.5-1.1,1.1-1.1h35.8c0.6,0,1.1,0.5,1.1,1.1V50z M9.9,26.1h33.7v-3.3H9.9V26.1z
	 M9.9,20.6h33.7v-3.3H9.9V20.6z M36.3,52.2h-2.9c-1.3,0-2.3-1-2.3-2.3v-2.1h-8.7v2.1c0,1.3-1,2.3-2.3,2.3h-2.9c-1.3,0-2.3-1-2.3-2.3
	v-2.2c0,0,0,0,0,0c-0.4-0.1-0.9-0.4-1.3-0.9c-0.3-0.4-0.6-1-0.8-1.7c-0.1-0.2-0.1-0.5-0.2-0.7c-0.6-1.9-1.4-4.4,0-6.1
	c1.1-1.3,2.3-1.4,3.3-1.4c0,0,0-0.1,0-0.1c0.9-2.4,1.9-3.9,3.3-4.7c2.4-1.4,12.6-1.4,15,0c1.4,0.8,2.4,2.2,3.4,4.7
	c0,0.1,0,0.1,0.1,0.2c1.1,0,2.1,0,3.3,1.4c1.5,1.8,0.5,4.3-0.2,6.2c-0.1,0.2-0.2,0.5-0.2,0.7c-0.2,0.5-0.4,1.1-0.8,1.6
	c-0.4,0.5-0.8,0.7-1.1,0.9c0,0,0,0,0,0.1v2.2C38.6,51.1,37.5,52.2,36.3,52.2z M33.2,47.8v2.1c0,0.1,0.1,0.1,0.1,0.1h2.9
	c0.1,0,0.1-0.1,0.1-0.1v-2.1H33.2z M17.1,47.8v2.1c0,0.1,0.1,0.1,0.1,0.1h2.9c0.1,0,0.1-0.1,0.1-0.1v-2.1H17.1z M15.5,39.1
	c-0.6,0-0.9,0.1-1.3,0.6c-0.7,0.8,0,2.7,0.4,4c0.1,0.3,0.2,0.5,0.2,0.7l0,0c0.1,0.4,0.3,0.8,0.4,1c0.1,0.2,0.2,0.2,0.3,0.2h22.2
	c0.1,0,0.1,0,0.3-0.2c0.2-0.3,0.4-0.7,0.5-1c0.1-0.2,0.2-0.5,0.3-0.7c0.5-1.3,1.2-3.2,0.6-4c-0.5-0.6-0.7-0.6-1.7-0.6
	c-0.2,0-0.4,0-0.6,0H16.7c-0.2,0-0.5,0-0.7,0C15.8,39.1,15.6,39.1,15.5,39.1z M18.1,37h17.2c-0.7-1.6-1.4-2.5-2.2-3
	c-1.7-1-11.1-0.9-12.8,0C19.4,34.5,18.8,35.4,18.1,37z M33.5,44.5c-0.4,0-0.9-0.3-1-0.7c-0.2-0.6,0.1-1.2,0.7-1.4l3.4-1.2
	c0.6-0.2,1.2,0.1,1.4,0.7c0.2,0.6-0.1,1.2-0.7,1.4l-3.4,1.2C33.7,44.5,33.6,44.5,33.5,44.5z M20,44.5c-0.1,0-0.2,0-0.4-0.1l-3.4-1.2
	c-0.6-0.2-0.9-0.8-0.7-1.4c0.2-0.6,0.8-0.9,1.4-0.7l3.4,1.2c0.6,0.2,0.9,0.8,0.7,1.4C20.9,44.3,20.4,44.5,20,44.5z"/>
</svg>
