<svg width="16" height="24" viewBox="0 0 16 24" fill="none" xmlns="http://www.w3.org/2000/svg">
<g clip-path="url(#clip0_4_2)">
<path d="M7.91557 20.3136L8 20.4466L8.08443 20.3136C9.83912 17.5491 11.3417 15.1251 12.4055 13.0188C13.4682 10.9147 14.1 9.11458 14.1 7.6C14.1 4.55846 11.2487 1.9 8 1.9C4.75274 1.9 1.9 4.43713 1.9 7.6C1.9 9.17439 2.53158 10.9743 3.59462 13.0641C4.65843 15.1554 6.16116 17.5495 7.91557 20.3136ZM0.1 7.6C0.1 3.46172 3.8485 0.1 8 0.1C12.1515 0.1 15.9 3.46172 15.9 7.6C15.9 9.6743 15.0426 11.9586 13.6106 14.6315C12.4613 16.7768 10.9477 19.1624 9.22262 21.8814C8.82566 22.5071 8.41749 23.1504 8 23.8125C7.58251 23.1504 7.17435 22.5071 6.77738 21.8814C5.05229 19.1624 3.53866 16.7768 2.3894 14.6315C0.957428 11.9586 0.1 9.6743 0.1 7.6ZM8 10.9C6.39523 10.9 5.1 9.60477 5.1 8C5.1 6.39523 6.39523 5.1 8 5.1C9.60477 5.1 10.9 6.39523 10.9 8C10.9 9.60477 9.60477 10.9 8 10.9Z" fill="#E1E152" stroke="black" stroke-width="0.2"/>
</g>
<defs>
<clipPath id="clip0_4_2">
<rect width="16" height="24" fill="white"/>
</clipPath>
</defs>
</svg>
